<svg xmlns="http://www.w3.org/2000/svg" xmlns:xlink="http://www.w3.org/1999/xlink" viewBox="0 0 1475.26 455">
  <defs>
    <linearGradient id="a" x1="80.32" y1="354.15" x2="740.33" y2="-380.35" gradientUnits="userSpaceOnUse">
      <stop offset="0" stop-color="#51b13e"/>
      <stop offset="0.12" stop-color="#6fbb37"/>
      <stop offset="0.29" stop-color="#91c72f"/>
      <stop offset="0.46" stop-color="#acd029"/>
      <stop offset="0.63" stop-color="#bfd724"/>
      <stop offset="0.81" stop-color="#cadb22"/>
      <stop offset="1" stop-color="#cedc21"/>
    </linearGradient>
  </defs>
  <g>
    <path d="M432,58.43l-384.54,0a13.5,13.5,0,0,1,0-27l334.64-.06c13.13,0,22.54-15.68,10-29.07A7.16,7.16,0,0,0,386.87,0H16.2A16.21,16.21,0,0,0,0,16.2V370.77S8.73,390,19.32,389.5H60.08A139.31,139.31,0,0,0,178.2,455a140.84,140.84,0,0,0,118.12-64.41H432.43c10.6-.63,18.75-19.81,18.75-19.81V77.94A19.35,19.35,0,0,0,432,58.43ZM178.2,428.51A113.56,113.56,0,0,1,64.76,315.08,116.57,116.57,0,0,1,65.63,301,113.44,113.44,0,1,1,178.2,428.51ZM422,187.18H318.1c-17,0-33.41-13.68-35.78-30.5a35.72,35.72,0,0,1,35.33-40.91H422ZM306.67,151.75a15.24,15.24,0,1,0,15.24-15.24A15.24,15.24,0,0,0,306.67,151.75Z" style="fill: url(#a)"/>
    <path d="M168.28,352.52l9.77-36.8,23.14-8.46L207,285.64l-.2-.54L184,293.42l16.41-61.79H153.84l-21.46,80.64-17.92,6.55-5.92,22.29,17.9-6.54L113.79,382.1H237.66l7.94-29.58H168.28" style="fill: #1e7a44"/>
    <g>
      <path d="M535.48,217.61v130h52v36.75H492.23V217.61Z" style="fill: #51b13e"/>
      <path d="M655,254.36v130H611.72v-130h-35.5V217.61H690.47v36.75Z" style="fill: #51b13e"/>
      <path d="M827.22,379.86c-17.25,6.25-26.75,8.25-37.5,8.25-29,0-50.75-11.5-64.5-25A87.48,87.48,0,0,1,700,302.36a87.49,87.49,0,0,1,88.25-87.5c8,0,21,1.25,39,8.5v51.75c-14-17.25-30.5-18.25-37.75-18.25-12.5,0-22,3.75-30,11-10.25,9.5-14.5,22.5-14.5,34.25,0,11.5,4.75,24.25,13.5,32.5,7.25,6.75,18.75,11.5,31,11.5,6.5,0,22.5-.75,37.75-17.5Z" style="fill: #51b13e"/>
      <path d="M868.47,305.11v79.25h-11V217.61h32.25c27.25,0,48.75,15,48.75,43.5,0,27.75-19.75,44-48.5,44Zm0-10h22c21.75,0,36.5-12.75,36.5-33.75,0-20.75-14-33.75-38.25-33.75H868.47Z" style="fill: #1e7a44"/>
      <path d="M1032.22,329.61h-71L939,384.36H927l70.25-171.75,69.25,171.75h-12Zm-4-10-31.25-79-31.75,79Z" style="fill: #1e7a44"/>
      <path d="M1113,313.11l-54.75-95.5h12.5l48,84.25,49-84.25h12.5L1124,313.11v71.25h-11Z" style="fill: #1e7a44"/>
      <path d="M1177.91,371.63a7,7,0,1,1-7,7A6.9,6.9,0,0,1,1177.91,371.63Z" style="fill: #1e7a44"/>
      <path d="M1261.51,325.08c-5.13-5.89-14.06-12.73-26.79-12.73-19,0-32.3,14.63-32.3,33.63,0,22.23,16.91,33.25,31.92,33.25,12.35,0,22-7.22,28.12-13.87v10.26a42.27,42.27,0,0,1-28.31,10.83c-23.37,0-39.71-17.29-39.71-40.28s15.39-41,40.28-41a40.73,40.73,0,0,1,26.79,9.88Z" style="fill: #1e7a44"/>
      <path d="M1358,345.79c0,23-17.67,40.66-40.66,40.66s-40.66-17.67-40.66-40.66,17.67-40.66,40.66-40.66S1358,322.8,1358,345.79Zm-8,0c0-18.81-14.06-33.44-32.68-33.44s-32.68,14.63-32.68,33.44,14.06,33.44,32.68,33.44S1350.05,364.6,1350.05,345.79Z" style="fill: #1e7a44"/>
      <path d="M1378.74,306.84h7.6v9.69c5.89-10.07,14.82-11.4,20.14-11.4,15.2,0,20.14,10.07,21.66,14.06,4.37-9.31,12.73-14.06,23-14.06,8.55,0,14.06,3,17.48,6.46,6.27,6.27,6.65,14.82,6.65,21.09v51.68h-7.6V332.68c0-5.13-.38-11.59-4.56-16-3.42-3.61-8-4.37-11.59-4.37-20.52,0-20.71,20.52-20.71,25.27v46.74h-7.6V334.58c0-4.94-.38-22.23-17.1-22.23-13.49,0-19.76,11.78-19.76,27.17v44.84h-7.6Z" style="fill: #1e7a44"/>
    </g>
  </g>
</svg>
